<svg width="140" height="56" viewBox="0 0 140 56" fill="none" xmlns="http://www.w3.org/2000/svg">
<path d="M125.936 41.8897L128.015 42.8432C127.044 40.3946 125.694 37.0333 124.421 34.7141L123.846 33.6584L122.934 34.4996C121.532 35.8584 118.944 35.5417 117.98 33.8695C116.939 32.2962 117.759 30.0042 119.593 29.4389L121.006 28.9655C119.091 26.2479 116.998 23.6222 114.677 21.2144L113.572 20.0565L112.717 21.4221C111.809 22.9478 109.446 23.2646 108.18 22.0045C106.861 20.8398 107.044 18.6023 108.544 17.676L110.045 16.6986L108.636 15.5543C105.95 13.3441 102.994 11.3757 99.9925 9.58777L99.4631 11.3859C98.6672 14.0661 94.6244 13.8924 94.1265 11.1339C93.9757 10.3506 94.2211 9.53669 94.7576 8.94412L96.0935 7.47631C92.8677 5.97786 89.5227 4.59519 86.104 3.57693L84.1124 2.97074L84.0844 5.01068C84.0984 6.59768 82.3979 7.88839 80.827 7.45248C79.2457 7.11532 78.3586 5.25928 79.1265 3.87662L80.1117 1.97971C75.8235 1.15556 71.3775 0.685596 67.0122 0.573212L67.5451 2.7017C67.9483 4.16609 66.7176 5.76672 65.1468 5.74628C63.576 5.8178 62.2716 4.2955 62.6293 2.81067L63.0886 0.651538L60.8235 0.835437C57.1734 1.10788 53.4918 1.789 49.9224 2.5825L51.0409 4.52709C51.4056 5.16393 51.4617 5.97105 51.1777 6.64876C50.6272 8.08251 48.6356 8.65123 47.3733 7.73173C46.7316 7.30603 46.3354 6.59768 46.2898 5.84164L46.1601 3.68591C42.0332 5.05154 37.9518 6.79179 34.1229 8.81811L35.6447 10.3132C36.1917 10.8512 36.4687 11.6515 36.367 12.4042C36.0234 15.1014 32.0753 15.4726 31.1882 12.8776L30.543 11.0215C27.6047 12.9661 24.712 15.0844 22.1278 17.4512L20.7323 18.7147L22.3347 19.6104C24.9645 21.1327 23.618 25.0695 20.557 24.8448C19.6489 24.7903 18.7933 24.3067 18.2709 23.5609L17.4083 22.3246C15.2239 24.8311 13.1622 27.4773 11.3775 30.2596L10.6762 31.3426L11.9034 31.6627C15.3081 32.5993 15.0135 37.4147 11.5037 38.0175C10.4764 38.2082 9.36837 37.9051 8.56893 37.2206L7.88871 36.6383C7.22251 37.9971 6.60189 39.3763 6.02686 40.776C6.57735 40.4763 7.14537 40.2107 7.72041 39.9621C7.92377 39.5398 8.13415 39.1243 8.34804 38.7089C8.72672 38.9541 9.13345 39.1414 9.56473 39.2674C11.1671 38.7395 12.8291 38.3683 14.5227 38.1027C14.8312 37.8098 15.1047 37.4794 15.3221 37.098C16.7737 34.8571 15.8621 31.7615 13.6285 30.3958C14.7786 28.8259 16.0023 27.307 17.2926 25.8494C19.3298 27.6407 22.8116 27.6986 24.7751 25.6723C26.8228 23.7958 26.8473 20.5503 25.1713 18.4865C26.4862 17.424 27.8396 16.4125 29.2281 15.4488C29.8698 16.2695 30.7429 16.9268 31.7386 17.2844C36.7948 19.1029 41.0023 14.0763 39.1265 9.85681C40.557 9.19613 42.0157 8.58993 43.4918 8.03483C43.9126 8.95433 44.5753 9.77508 45.4238 10.3506C49.8943 13.3986 55.3607 9.56052 54.712 4.96981C56.2197 4.69395 57.738 4.46919 59.2632 4.29891C59.7821 6.95186 62.3172 9.17569 65.2134 9.02585C68.1307 9.04288 70.5605 6.69984 70.9392 4.01965C72.503 4.11501 74.0634 4.26826 75.6166 4.47941C75.529 5.47384 75.7008 6.4921 76.1496 7.38436C77.6117 10.6026 82.212 11.6618 84.9925 9.41409C85.8235 8.78405 86.4512 7.92926 86.8193 6.9791C88.3831 7.48313 89.9259 8.04845 91.4476 8.67167C91.0795 9.61842 90.9708 10.6639 91.1742 11.6516C91.7317 15.0435 95.7955 17.1618 99.0038 15.7246C99.989 15.3194 100.834 14.6348 101.434 13.7868C102.889 14.7029 104.309 15.6735 105.683 16.6986C104.102 18.8203 104.27 22.0692 106.388 23.8537C108.425 25.7847 111.816 25.6451 113.828 23.8639C115.101 25.2057 116.311 26.6054 117.465 28.0494C113.871 30.6274 115.059 36.6893 120.035 37.2513C121.167 37.3739 122.321 37.1082 123.281 36.5395C124.253 38.2797 125.133 40.0677 125.925 41.8931L125.936 41.8897Z" fill="#FCFCFC"/>
<path d="M111.711 40.902H111.879C103.131 24.9844 85.9956 13.7766 65.957 13.8618C51.0096 13.7766 36.2129 20.4107 26.6056 31.5299C24.9471 33.3962 23.4464 35.3816 22.1035 37.459C22.7837 37.4454 23.464 37.4454 24.1477 37.459C27.4086 33.0011 31.4233 29.0711 36.0657 25.9277C47.6014 17.8803 62.6084 14.7949 76.497 17.693C91.248 20.5674 104.47 28.9246 111.711 40.902Z" fill="#FCFCFC"/>
<path d="M117.359 45.4859C111.577 45.3327 105.778 49.0311 104.253 53.9794C107.51 49.4977 111.721 47.4782 116.83 47.4748C121.949 47.468 126.146 49.5522 129.295 53.8194C127.798 49.6203 123.064 45.6392 117.356 45.4859H117.359Z" fill="#FCFCFC"/>
<path d="M139.256 52.9067C138.65 52.3141 138.057 51.7079 137.426 51.146C132.279 46.5689 126.248 43.8376 119.758 42.0838C111.318 39.802 102.703 39.2742 94.0284 39.3048C93.5305 39.3048 92.9905 39.1482 92.5382 38.92C88.8601 37.0844 85.2626 35.0615 81.5214 33.3893C74.7121 30.3482 67.5873 28.7646 60.1293 28.8054C51.1216 28.8531 42.2226 29.8952 33.3832 31.6321C27.2366 32.8376 21.1777 34.3838 15.1784 36.1751L15.2065 36.1581C15.2065 36.1581 7.30674 37.5203 5.40982 34.4519L1.53885 33.7231C1.53885 33.7231 2.07181 36.4101 0.742917 42.3085C0.199439 43.0237 -0.0950894 43.8615 0.0276315 44.8491C0.3432 47.3556 1.88247 49.1503 3.49537 51.0847C3.51992 50.7918 3.53394 50.6897 3.53745 50.5909C3.75835 39.8599 20.2731 39.3253 24.7506 40.3197C32.5592 42.0565 36.4232 42.438 57.149 55.4268C57.1911 55.3383 45.5115 46.402 38.8039 42.7479C37.2787 41.9169 35.5957 41.3958 33.9652 40.7999C32.3804 40.2175 30.7675 39.7271 29.1651 39.1958C29.1896 39.0937 29.2177 38.9915 29.2422 38.8927C31.4828 39.4138 33.7373 39.8872 35.9603 40.4729C39.379 41.3754 42.738 42.5776 46.1953 43.2553C50.757 44.151 55.3748 44.7878 59.9926 45.3123C68.3622 46.2658 100.235 47.8698 100.68 47.8222C100.164 47.6519 68.8004 43.0816 63.001 42.3017C58.7934 41.733 54.5683 41.2767 50.3958 40.507C48.527 40.163 46.7563 39.1992 44.9575 38.467C42.745 37.5646 40.5536 36.611 38.3551 35.6745C38.0536 35.5451 37.7661 35.3748 37.4715 35.2215C37.4786 35.1228 37.4821 35.0206 37.4891 34.9218C39.3509 34.6051 41.2058 34.2612 43.0746 33.9819C50.0066 32.933 56.9631 32.2723 63.9828 32.4562C66.346 32.5175 68.6742 32.7355 70.9709 33.093C75.9814 34.4723 80.743 36.5633 85.3432 39.0937C85.4414 39.1482 85.5256 39.2333 85.7184 39.39C83.3271 39.1243 81.0761 38.8178 78.818 38.6475C77.696 38.5624 76.8685 38.2593 76.3916 37.115C76.1953 36.6485 75.8166 36.0865 75.3958 35.9333C74.2633 35.5212 73.0746 35.2454 71.8895 35.0274C70.9709 34.8571 70.501 35.2011 70.0873 36.0661C69.3755 37.551 70.3888 39.3287 71.9772 39.441C75.196 39.6692 78.4148 39.928 81.6336 40.1767C84.5754 40.4014 87.5137 40.7045 90.459 40.8271C93.8355 40.9701 97.2191 40.8952 100.596 41.0212C106.988 41.2596 113.299 42.1417 119.488 43.8615C125.242 45.4587 130.42 48.0265 133.927 53.3358C134.025 53.4822 134.246 53.6321 134.404 53.6253C136.062 53.5435 137.717 53.4312 139.533 53.3188C139.365 53.077 139.319 52.9816 139.253 52.9135L139.256 52.9067Z" fill="#FCFCFC"/>
</svg>
